<svg width="77" height="69" viewBox="0 0 77 69" fill="none" xmlns="http://www.w3.org/2000/svg">
<path d="M77 11.5V24.9167L71.2268 26.8333L65.2997 17.4033C64.7993 16.5983 63.5292 16.9433 63.5292 17.9017V31.625C63.5292 35.3817 62.0282 38.755 59.6804 41.3233V69H50.0584V46H49.0962C48.288 46 47.4797 45.885 46.71 45.77L29.6213 42.9333L25.3107 50.6383L29.0055 69H19.268L15.4192 50.7917C15.3038 49.6417 15.4192 48.4917 16.0351 47.495L19.9608 40.5567C18.0504 39.498 16.4495 37.9623 15.3158 36.1005C14.1821 34.2387 13.5545 32.115 13.4949 29.9383C13.3409 30.5133 13.2639 31.3567 13.3794 32.5833C13.4949 34.27 13.9182 36.7617 13.6488 39.5217C13.4949 42.2817 12.2247 45.1183 10.6083 46.9967C8.95327 48.875 7.14434 50.1783 5.21994 51.175L2.52578 48.4917C3.25705 46.69 3.98832 45.08 4.14227 43.585C4.3732 42.1667 4.10379 41.0167 3.68042 39.9817L1.64056 35.65C0.83231 33.695 -0.168378 30.8583 0.0240621 27.5233C0.139526 24.265 1.94846 20.01 5.37389 17.6717C8.83781 15.3333 12.5711 15.0267 15.6117 15.64C17.5361 16.0233 19.499 16.9433 21.1924 18.2467C22.6165 17.595 24.2715 17.25 26.0034 17.25H48.134V15.3333C48.134 6.86167 55.0234 0 63.5292 0H77L73.5746 5.13667C75.6529 6.51667 77 8.855 77 11.5Z" fill="#718096"/>
</svg>
