<svg width="97" height="96" viewBox="0 0 97 96" fill="none" xmlns="http://www.w3.org/2000/svg">
<path d="M69.43 23.23C69.2 23.04 68.87 23 68.6 23.12C68.33 23.25 68.15 23.52 68.14 23.82L68.1 25.65C68.1 25.95 68.25 26.22 68.51 26.36L70.72 27.55L71.76 30.72C71.81 30.87 71.91 31.01 72.04 31.1C72.74 31.63 73.45 32.28 73.64 32.56C73.61 33.11 73.7 34.08 73.76 34.64C73.24 35.37 72.52 35.87 71.77 36.03C71.3 36.13 70.88 36.07 70.6 35.88C70.1 35.54 69.98 34.67 69.99 34.2C69.99 33.8 69.7 33.45 69.3 33.4L64.5 32.83C64.19 32.79 63.88 32.95 63.72 33.23C63.16 34.22 62.81 35.29 62.67 36.41C62.59 37.03 62.42 38.47 63.03 40.1C63.52 41.39 64.26 42.15 65.5 43.42C65.81 43.74 65.84 44.31 65.87 44.87C65.9 45.52 65.94 46.25 66.52 46.68C66.69 46.81 66.91 46.86 67.12 46.83L69.42 46.45L71.51 53.2L71.71 58.02C71.39 58.58 71.02 59.1 70.61 59.58C70.11 60.16 69.55 60.68 68.94 61.13C68.78 60.88 68.64 60.61 68.54 60.33C68.26 59.57 68.24 58.87 68.29 58.35L70.01 56.59C70.07 56.53 70.11 56.47 70.15 56.39C70.34 56.01 70.45 55.6 70.46 55.18C70.5 54.24 70.07 53.53 69.82 53.2C69.75 53.11 69.67 53.04 69.58 52.99C69.09 52.72 68.29 52.55 67.53 52.9C66.83 53.22 66.52 53.81 66.4 54.1C64.27 58.08 61.57 61.68 58.39 64.81C56.55 66.62 54.53 68.29 52.39 69.75C52.07 69.97 51.96 70.39 52.13 70.74C52.63 71.77 53.17 73.42 52.93 75.42C52.8 76.48 52.47 77.49 51.95 78.44C51.81 78.7 51.82 79.02 51.99 79.26C52.14 79.48 52.38 79.61 52.64 79.61C52.67 79.61 52.71 79.61 52.74 79.61C67.61 77.74 75.43 65.32 76.28 63.92C76.48 63.58 76.4 63.14 76.09 62.89C75.63 62.54 75.22 62.13 74.85 61.69C74.59 61.37 74.35 61.04 74.13 60.68L75.68 58.46C75.78 58.32 75.82 58.16 75.82 58C75.8 56.89 75.71 55.78 75.54 54.7C75.41 53.87 75.24 53.03 75.03 52.21C74.92 51.79 74.5 51.54 74.08 51.64L72.79 51.96L72.35 50.53C72.85 50.36 73.37 50.23 73.88 50.12C74.47 50 75.07 49.91 75.66 49.86C76.19 50.91 76.62 52.01 76.94 53.15C77.35 54.6 77.57 56.1 77.6 57.6C77.6 57.98 77.89 58.33 78.27 58.39C78.66 58.46 79.04 58.22 79.17 57.86C80.33 54.57 80.94 51.19 80.96 47.83C81.04 38.44 76.73 29.24 69.44 23.23H69.43ZM73.19 30L72.87 29.03C73.32 29.6 73.74 30.19 74.14 30.79C73.88 30.55 73.57 30.29 73.19 29.99V30ZM73.19 58.6C73.26 58.47 73.29 58.33 73.29 58.19L73.1 53.51L73.68 53.37C73.8 53.89 73.9 54.42 73.98 54.94C74.12 55.87 74.21 56.82 74.23 57.77L72.54 60.18C72.37 60.42 72.35 60.74 72.49 61C72.81 61.6 73.19 62.17 73.63 62.7C73.92 63.05 74.23 63.37 74.57 63.68C72.86 66.31 66 75.69 53.96 77.84C54.22 77.13 54.4 76.39 54.49 75.63C54.73 73.62 54.31 71.91 53.81 70.69C55.83 69.26 57.74 67.67 59.49 65.94C62.8 62.69 65.59 58.94 67.8 54.81C67.82 54.78 67.83 54.75 67.84 54.71C67.86 54.65 67.96 54.44 68.18 54.33C68.36 54.25 68.54 54.28 68.66 54.31C68.77 54.5 68.89 54.78 68.88 55.12C68.88 55.31 68.83 55.47 68.78 55.59L66.98 57.43C66.87 57.55 66.79 57.7 66.77 57.86C66.61 58.89 66.71 59.93 67.07 60.88C67.32 61.56 67.7 62.17 68.19 62.72C68.45 63.01 68.87 63.07 69.2 62.86C70.18 62.24 71.06 61.48 71.82 60.61C72.35 59.99 72.82 59.31 73.22 58.59L73.19 58.6ZM78.7 53.75C78.62 53.41 78.54 53.07 78.44 52.73C78.05 51.32 77.49 49.96 76.8 48.67C76.66 48.41 76.4 48.26 76.11 48.26C76.1 48.26 76.09 48.26 76.07 48.26C75.22 48.3 74.37 48.41 73.54 48.58C72.97 48.7 72.41 48.85 71.86 49.03L70.72 45.34C70.6 44.96 70.22 44.73 69.84 44.8L67.47 45.19C67.46 45.06 67.45 44.92 67.44 44.8C67.4 44.07 67.35 43.08 66.62 42.34C65.45 41.15 64.87 40.55 64.5 39.57C64.02 38.31 64.16 37.17 64.23 36.63C64.32 35.89 64.53 35.17 64.85 34.49L68.46 34.92C68.56 35.63 68.85 36.62 69.71 37.21C70.35 37.65 71.2 37.78 72.09 37.6C73.33 37.34 74.48 36.5 75.24 35.29C75.34 35.14 75.38 34.96 75.36 34.78C75.26 33.97 75.18 32.93 75.22 32.65C75.22 32.62 75.22 32.6 75.23 32.56C77.92 37.21 79.42 42.55 79.38 47.84C79.36 49.82 79.14 51.8 78.7 53.77V53.75Z" fill="black"/>
<path d="M17.2398 48.09C15.8598 48.64 15.7798 48.83 16.2898 50.32C19.7098 48.6 23.3198 47.9 27.1298 48.45C30.9098 49 34.1898 50.59 36.9198 53.18C35.1198 53.3 33.3698 53.44 31.6198 53.53C31.3298 53.55 31.0198 53.41 30.7398 53.29C26.4398 51.37 22.1698 51.43 17.9898 53.58C16.4298 54.38 16.5698 53.98 17.0498 55.82C17.0598 55.87 17.1098 55.9 17.1698 55.98C20.6798 53.63 24.4198 52.92 28.6898 54.25C28.1398 54.47 27.8098 54.61 27.4698 54.75C24.4898 55.98 21.9598 57.82 19.8998 60.29C18.8698 61.53 18.8698 61.59 19.8998 62.96C20.0798 62.73 20.2398 62.5 20.4198 62.28C24.9898 56.46 30.9098 54.06 38.2398 55.25C38.6298 55.31 39.0698 55.62 39.2998 55.95C43.6098 61.95 43.6498 70.2 39.4598 76.31C39.1198 76.8 38.8498 76.9 38.2898 76.7C32.1298 74.54 27.1798 70.8 23.3598 65.52C23.1798 65.27 22.9998 65.03 22.7798 64.71C22.4198 65.25 22.1298 65.7 21.7998 66.19C26.1698 72.3 31.8498 76.45 38.9598 78.65C39.4798 78.81 39.7698 78.69 40.0898 78.26C43.4898 73.73 44.8798 68.65 43.9498 63.06C41.8798 50.6 28.9598 43.39 17.2398 48.08V48.09Z" fill="black"/>
<path d="M17.8602 41.94C18.0202 42 18.1802 42.06 18.3402 42.11C24.3602 44.15 30.5202 44.19 36.7302 43.38C37.3302 43.3 37.7002 43.4 38.0002 43.9C39.7602 46.86 41.5202 49.81 43.2802 52.76C43.4302 53.02 43.5702 53.28 43.7102 53.54C43.5902 41.18 41.7502 29.27 35.3002 18.41C34.7002 18.7 34.2502 18.91 33.8602 19.1C34.9502 21.19 35.9902 23.2 37.0302 25.2C36.9802 25.26 36.9202 25.31 36.8702 25.37C36.3902 25.22 35.9102 25.09 35.4402 24.93C33.2902 24.2 31.3502 23.1 29.5702 21.64C29.1202 21.99 28.7002 22.31 28.2702 22.63C30.1202 24.4 32.7802 26.04 35.6902 26.67C37.4702 27.06 38.2902 27.94 38.6102 29.6C38.7602 30.38 39.0602 31.14 39.3202 32C34.0602 30.7 29.3002 28.76 25.2102 25.34C24.8302 25.75 24.4902 26.12 24.1102 26.52C24.3802 26.75 24.5902 26.94 24.8002 27.12C28.6102 30.15 32.9602 32.11 37.6502 33.21C39.4202 33.62 40.1802 34.39 40.4102 36.15C40.8702 39.63 41.5002 43.08 42.0702 46.58C41.8102 46.58 41.7602 46.59 41.7502 46.58C41.6402 46.42 41.5402 46.25 41.4202 46.09C39.7402 43.87 38.2102 41.52 36.3402 39.47C32.4102 35.15 27.5102 32.27 21.9402 30.52C21.3902 30.35 21.0302 30.38 20.7902 30.95C20.6802 31.22 20.5102 31.48 20.3502 31.79C23.8902 32.79 27.1302 34.19 30.2502 36.4C26.1402 36.73 22.4202 36.2 18.8402 34.62C18.6102 35.17 18.4102 35.63 18.2302 36.07C21.1202 37.64 26.5102 38.53 30.1202 38.07C32.2902 37.8 32.3002 37.78 33.9102 39.32C34.6902 40.07 35.4302 40.87 36.3402 41.8C29.5902 42.57 23.2002 42.42 17.0702 39.88C16.6569 40.9 16.9202 41.5867 17.8602 41.94Z" fill="black"/>
<path d="M49.1102 52.27C51.3402 49.7 52.9902 46.93 54.0102 44C54.7102 42 54.9602 40.38 55.2102 38.82C55.4902 37.06 55.7502 35.4 56.5902 33.16C57.5002 30.75 58.7802 28.47 60.4102 26.38C60.6102 26.13 60.6302 25.79 60.4802 25.51L59.2102 23.24L62.2002 23.66C62.4802 23.7 62.7502 23.59 62.9202 23.38L64.7502 21.13C64.8902 20.96 64.9502 20.73 64.9202 20.51C64.8802 20.29 64.7602 20.09 64.5702 19.97C62.1402 18.41 59.5202 17.6 57.5802 17.12C57.3702 17.07 57.2002 17.03 57.0402 16.99C57.0202 16.99 57.0102 16.99 56.9902 16.98C56.0002 16.75 55.9802 16.87 55.3502 18.02C52.1902 23.79 50.2302 29.97 48.9802 36.4C48.7002 37.84 48.4702 39.3 48.1902 40.88C48.0902 40.66 48.0302 40.59 48.0202 40.51C47.5302 38 47.0402 35.5 46.5702 32.99C46.5002 32.63 46.5202 32.26 46.6302 31.91C47.6402 28.59 48.6002 25.25 49.7502 21.98C50.4502 19.99 51.4402 18.1 52.3002 16.16C50.8102 15.72 50.7102 15.75 50.0802 17.07C49.5502 18.18 49.0402 19.31 48.5102 20.48C48.4002 20.71 48.0702 20.71 47.9702 20.48C47.4302 19.28 46.9102 18.12 46.3802 16.98C45.8202 15.78 45.5702 15.7 44.1602 16.18C44.2902 16.46 44.4202 16.74 44.5502 17.01C45.4102 18.96 46.2802 20.91 47.1302 22.86C47.2402 23.11 47.3702 23.43 47.3002 23.67C46.8402 25.21 46.3502 26.74 45.8502 28.31C45.7702 28.58 45.3902 28.59 45.2902 28.33C44.5802 26.43 43.9302 24.58 43.1402 22.78C42.2802 20.81 41.2602 18.92 40.2902 16.99C40.2302 16.86 40.0802 16.8 39.9402 16.84L38.8302 17.2C38.6502 17.26 38.5702 17.47 38.6602 17.63C39.2302 18.66 39.7802 19.6 40.2602 20.57C44.8802 29.86 46.9402 39.79 47.2202 50.07C47.4802 59.63 47.3202 69.21 47.3502 78.77C47.3502 79.04 47.3502 79.31 47.3502 79.6C47.3502 79.76 47.4802 79.9 47.6402 79.9H48.6902C48.8502 79.9 48.9802 79.77 48.9802 79.61V78.77C48.9802 71.37 48.9002 63.96 49.0102 56.56C49.0302 55.14 49.0702 53.71 49.1102 52.28V52.27ZM54.7302 23.16C55.3902 21.65 56.1302 20.09 56.8702 18.57C58.5202 18.97 60.7902 19.61 62.9502 20.84L61.9702 22.04L58.3002 21.53C57.9102 21.48 57.5402 21.64 57.3202 21.96C57.1002 22.28 57.0802 22.69 57.2702 23.02L58.8402 25.83C57.2602 27.93 56.0102 30.21 55.1102 32.61C54.2102 35 53.9302 36.82 53.6502 38.58C53.4002 40.15 53.1702 41.63 52.5202 43.49C51.7702 45.63 50.6602 47.7 49.2002 49.65C49.3102 47.34 49.4602 45.04 49.6902 42.74C50.3502 35.97 52.0102 29.41 54.7202 23.15L54.7302 23.16Z" fill="black"/>
</svg>